<?xml version="1.0" encoding="utf-8"?>
<!-- Generator: Adobe Illustrator 27.3.1, SVG Export Plug-In . SVG Version: 6.00 Build 0)  -->
<svg version="1.1" id="Layer_1" xmlns="http://www.w3.org/2000/svg" xmlns:xlink="http://www.w3.org/1999/xlink" x="0px" y="0px"
	 viewBox="0 0 7792.9 1846.6" style="enable-background:new 0 0 7792.9 1846.6;" xml:space="preserve">
<style type="text/css">
	.st0{fill:#FF0000;}
	.st1{fill:#FFFFFF;}
</style>
<g id="BACKGROUND">
</g>
<g id="OBJECT">
	<path class="st0" d="M932.7,273.9c-358.7,0-649.4,290.8-649.4,649.4s290.8,649.4,649.4,649.4s649.4-290.8,649.4-649.4
		S1291.3,273.9,932.7,273.9z M825.7,629.3c0-57.2,46-105.2,104.5-106.6c60.1-1.4,109.6,46.1,109.6,104.7v54.4h-33.2V629
		c0-39.3-31.4-72.5-71.6-73.8c-41.7-1.2-76.1,31.6-76.1,72.2v54.4h-33.2V629.3z M949.4,1060.7c0,36.5-29.3,67.1-66.5,67.9
		c-38.3,0.9-69.8-29.3-69.8-66.6v-34.6h21.2v33.6c0,25,20,46.2,45.6,46.9c26.6,0.7,48.4-20.2,48.4-46v-34.6l0,0l0,0h21.2V1060.7z
		 M1219,1323.9h-121.8c0-1,0-2.1-0.1-3.1L1061.8,992c-1.8-16.3-16.2-28.7-33.5-28.7h-294c-17.3,0-31.7,12.4-33.5,28.7l-35.4,328.7
		c-0.1,1-0.2,2.1-0.2,3.1h-18.8c-31.3,0-55.8-25.7-52.7-55.2l55.5-516.1c2.7-25.6,25.6-45.1,52.7-45.1h461.6
		c27.1,0,49.9,19.5,52.7,45.1l55.5,516.1C1274.9,1298.2,1250.5,1323.9,1219,1323.9z"/>
</g>
<g>
	<path class="st0" d="M1889.4,713.2h164.4L2182.5,968h5.3l128.8-254.8H2481l-222.7,405.5v203.4h-146.3v-203.4L1889.4,713.2z"/>
	<path class="st0" d="M2527.4,832.8V713.3H3042v119.4h-184.6v489.3h-145V832.8H2527.4z"/>
	<path class="st0" d="M3556.4,895.7c-2-21.8-10.8-38.8-26.3-51c-15.6-12.2-37.7-18.2-66.4-18.2c-19.1,0-34.9,2.5-47.6,7.4
		c-12.7,4.9-22.2,11.7-28.5,20.3c-6.4,8.6-9.6,18.4-9.8,29.5c-0.4,9.1,1.5,17.2,5.4,24.1c4.1,6.9,10,13,17.8,18.2
		c7.9,5.2,17.3,9.8,28.4,13.8c11.1,4,23.6,7.4,37.4,10.4l52.3,11.8c30.1,6.5,56.7,15.3,79.8,26.2c23.1,10.9,42.5,23.9,58.3,39
		c15.7,15.1,27.7,32.4,35.8,52s12.3,41.6,12.5,66c-0.2,38.5-10,71.5-29.1,99c-19.2,27.6-46.8,48.6-82.8,63.3
		c-35.9,14.7-79.3,22-130,22c-50.9,0-95.3-7.6-133.2-22.8c-37.8-15.3-67.3-38.5-88.3-69.6c-21-31.1-31.9-70.4-32.4-118h141
		c1.2,19.6,6.4,35.9,15.7,49c9.3,13.1,22.1,22.9,38.5,29.8c16.3,6.7,35.3,10.1,56.9,10.1c19.8,0,36.7-2.7,50.7-8.1
		c13.9-5.3,24.7-12.8,32.3-22.3c7.5-9.5,11.4-20.4,11.6-32.7c-0.2-11.5-3.8-21.4-10.7-29.5c-6.9-8.2-17.6-15.4-32-21.4
		c-14.4-6.1-32.7-11.6-54.8-16.8l-63.6-14.9c-52.7-12-94.2-31.6-124.6-58.7c-30.3-27-45.4-63.7-45.2-109.8
		c-0.2-37.6,10-70.6,30.3-99c20.4-28.3,48.6-50.4,84.8-66.3c36-15.8,77.2-23.8,123.3-23.8c47.2,0,88.1,8,122.9,23.9
		c34.8,15.9,61.8,38.3,81,67.1c19.2,28.7,29,62,29.4,99.9h-140.9V895.7z"/>
	<path class="st0" d="M3746.8,1322V713.2h147.1v244.3h239.8V713.2h146.9V1322h-146.9v-244.7h-239.8V1322H3746.8z"/>
	<path class="st0" d="M4914,1017.6c0,67-12.9,123.7-38.7,170.4c-25.8,46.5-60.6,81.9-104.5,106.1c-43.9,24.2-93,36.3-147.6,36.3
		c-54.7,0-103.9-12.2-147.7-36.6c-43.8-24.4-78.5-59.8-104.2-106.2c-25.7-46.5-38.5-103.1-38.5-169.8c0-67,12.8-123.7,38.5-170.4
		c25.7-46.5,60.4-81.9,104.2-106.1c43.8-24.2,93-36.3,147.7-36.3c54.5,0,103.7,12,147.6,36.3s78.7,59.5,104.5,106.1
		C4901.1,893.9,4914,950.6,4914,1017.6z M4763.6,1017.6c0-39.6-5.6-73.1-16.8-100.5c-11.2-27.3-27.2-48.1-48.2-62.1
		c-21-14-46-21.1-75.3-21.1c-29.1,0-54.2,7-75.2,21.1c-21,14-37.1,34.8-48.3,62.1c-11.2,27.3-16.8,60.9-16.8,100.5
		c0,39.6,5.6,73.1,16.8,100.5c11.2,27.3,27.3,48.1,48.3,62.1c21,14,46.1,21.1,75.2,21.1c29.3,0,54.5-7,75.3-21.1
		c21-14,37-34.8,48.2-62.1C4757.9,1090.7,4763.6,1057.3,4763.6,1017.6z"/>
	<path class="st0" d="M4966.1,1322V713.2h251.5c45.6,0,85,8.9,118.2,26.6c33.2,17.7,58.8,42.4,76.8,74c18,31.6,27,68.3,27,110.1
		c0,42-9.2,78.7-27.5,110.1c-18.3,31.4-44.4,55.7-78.4,72.9c-33.8,17.3-74.1,25.9-120.7,25.9h-155.2V1017h127.8
		c22.2,0,40.8-3.9,55.7-11.6c15-7.8,26.3-18.5,34.1-32.6c7.8-14,11.6-30.3,11.6-48.9c0-18.9-3.9-35.1-11.6-48.9
		c-7.8-13.7-19.2-24.4-34.2-32c-15.1-7.5-33.6-11.3-55.6-11.3h-72.5v490.2h-147.1V1322z"/>
	<path class="st0" d="M5807.5,895.7c-2-21.8-10.8-38.8-26.3-51c-15.5-12.2-37.7-18.2-66.4-18.2c-19.1,0-34.9,2.5-47.6,7.4
		c-12.7,4.9-22.2,11.7-28.5,20.3c-6.4,8.6-9.6,18.4-9.8,29.5c-0.4,9.1,1.5,17.2,5.4,24.1c4.1,6.9,10,13,17.8,18.2
		c7.9,5.2,17.3,9.8,28.4,13.8c11.1,4,23.6,7.4,37.4,10.4l52.3,11.8c30.1,6.5,56.7,15.3,79.8,26.2c23.1,10.9,42.5,23.9,58.3,39
		c15.7,15.1,27.7,32.4,35.8,52c8.2,19.6,12.3,41.6,12.5,66c-0.2,38.5-10,71.5-29.1,99c-19.2,27.6-46.8,48.6-82.8,63.3
		c-35.9,14.7-79.3,22-130,22c-50.9,0-95.3-7.6-133.2-22.8c-37.8-15.3-67.3-38.5-88.3-69.6c-21-31.1-31.9-70.4-32.4-118h140.9
		c1.2,19.6,6.4,35.9,15.7,49s22.1,22.9,38.5,29.8c16.3,6.7,35.3,10.1,56.9,10.1c19.8,0,36.7-2.7,50.7-8.1s24.7-12.8,32.3-22.3
		c7.5-9.5,11.4-20.4,11.6-32.7c-0.2-11.5-3.8-21.4-10.7-29.5c-6.9-8.2-17.6-15.4-32-21.4c-14.4-6.1-32.7-11.6-54.8-16.8l-63.6-14.9
		c-52.7-12-94.2-31.6-124.6-58.7c-30.3-27-45.4-63.7-45.2-109.8c-0.2-37.6,10-70.6,30.3-99c20.4-28.3,48.6-50.4,84.8-66.3
		c36-15.8,77.2-23.8,123.3-23.8c47.2,0,88.1,8,122.9,23.9c34.8,15.9,61.8,38.3,81,67.1s29,62,29.4,99.9h-140.8V895.7z"/>
</g>
<g>
	<g>
		<path class="st0" d="M7316.7,707.5H6510c-170.3,0-308.2,138-308.3,308.3c0,170.3,138,308.2,308.3,308.2h806.7
			c170.3,0,308.3-138,308.3-308.3S7487,707.5,7316.7,707.5z"/>
	</g>
	<g>
		<path class="st1" d="M6406.8,1141.5h-65.4l85-251.6h81l85,251.6h-65.4l-59.2-188.3h-1.9L6406.8,1141.5z M6398,1042.5h136.7v46.2
			H6398V1042.5z"/>
		<path class="st1" d="M6605.5,1141.5V889.8h60.8V1092H6771v49.4h-165.5V1141.5z"/>
		<path class="st1" d="M6788.6,1141.5V889.8h103.9c18.8,0,35.1,3.7,48.8,11c13.7,7.3,24.3,17.5,31.7,30.6
			c7.5,13.1,11.2,28.2,11.2,45.6s-3.8,32.5-11.3,45.6c-7.6,12.9-18.4,23.1-32.3,30.1c-14,7.1-30.6,10.7-49.8,10.7h-64.1v-47.9h52.9
			c9.1,0,16.9-1.6,23.1-4.9s10.9-7.6,14.1-13.5c3.2-5.9,4.8-12.5,4.8-20.3s-1.6-14.6-4.8-20.3c-3.2-5.7-7.9-10.1-14.1-13.2
			s-13.8-4.7-22.9-4.7h-30v202.7h-61.1V1141.5z"/>
		<path class="st1" d="M7000.4,1141.5V889.8h60.8v101h99.2v-101h60.7v251.6h-60.7v-101.1h-99.2v101.1h-60.8V1141.5z"/>
		<path class="st1" d="M7299.8,1141.5h-65.4l85-251.6h81l85,251.6h-65.4l-59.2-188.3h-1.9L7299.8,1141.5z M7291,1042.5h136.7v46.2
			H7291V1042.5z"/>
	</g>
</g>
</svg>
