<?xml version="1.0" encoding="utf-8"?>
<!-- Generator: Adobe Illustrator 25.2.0, SVG Export Plug-In . SVG Version: 6.00 Build 0)  -->
<svg version="1.1" xmlns="http://www.w3.org/2000/svg" xmlns:xlink="http://www.w3.org/1999/xlink" x="0px" y="0px"
	 viewBox="0 0 500 500" style="enable-background:new 0 0 500 500;" xml:space="preserve">
<style type="text/css">
	.st0{fill:#FF0000;}
	.st1{fill:#FFFFFF;}
</style>
<g id="BACKGROUND">
</g>
<g id="OBJECT">
	<g>
		<circle class="st0" cx="250" cy="250" r="200.47"/>
		<g>
			<path class="st1" d="M227.2,175.42v-16.77c0-12.52,10.61-22.66,23.49-22.29c12.4,0.36,22.11,10.63,22.11,22.76v16.29h10.24
				v-16.77c0-18.08-15.26-32.73-33.84-32.3c-18.04,0.42-32.24,15.26-32.24,32.91v16.17H227.2z"/>
			<path class="st1" d="M354.66,356.62l-17.15-159.34c-0.85-7.9-7.87-13.91-16.26-13.91h-142.5c-8.38,0-15.41,6.01-16.26,13.91
				l-17.15,159.34c-0.98,9.12,6.58,17.04,16.26,17.04h5.79c0-0.33,0.01-0.65,0.05-0.98l10.92-101.48c0.54-5.03,5.01-8.86,10.35-8.86
				h90.76c5.34,0,9.81,3.83,10.35,8.86l10.92,101.48c0.04,0.33,0.05,0.66,0.05,0.98h37.6C348.08,373.66,355.64,365.74,354.66,356.62
				z"/>
			<path class="st1" d="M248.62,282.13v10.68c0,7.97-6.75,14.43-14.96,14.2c-7.9-0.23-14.08-6.77-14.08-14.5v-10.38h-6.52v10.68
				c0,11.51,9.72,20.85,21.55,20.57c11.49-0.27,20.54-9.72,20.54-20.96v-10.3H248.62z"/>
		</g>
	</g>
</g>
</svg>
